<?xml version="1.0" encoding="UTF-8"?>
<svg id="Camada_2" data-name="Camada 2" xmlns="http://www.w3.org/2000/svg" viewBox="0 0 466.69 493.22">
  <defs>
    <style>
      .cls-1 {
        fill: #3a614d;
      }

      .cls-2 {
        fill: #8c340f;
      }

      .cls-3 {
        fill: #ce590f;
      }
    </style>
  </defs>
  <g id="icone">
    <g>
      <path class="cls-2" d="M176.43,47.41c-28.02,7.41-54.87,19.34-78.06,36.81C-36.36,185.75-9.85,394.23,142.9,462.65c160.68,71.98,337.53-63.88,309.62-238.58-11.86-74.25-64.77-141.85-135.61-168.3-6.09-2.27-20.92-5.22-25.17-7.98-2.93-1.9,1.23-6.67-.84-10.6,39.51,7.56,75.63,28.63,104.61,56.02,81.34,76.88,94.89,204.56,30.7,297.54-66.66,96.56-189.79,130.14-296.5,77.99-3.83-1.87-17.45-8.56-19.86-10.76-.93-.85-.32-2.22-.51-2.43s-1.56.64-2.37.34c-3.02-1.09-15.93-11.12-19.3-13.78C-35.78,344.66-28.06,150.22,105.78,65.59c21.21-13.41,44.35-22.88,68.62-29.16,2.12.64,1.36,8.75,2.03,10.98Z"/>
      <path class="cls-1" d="M215.4,432.9c.04-.12,1.54-1.24,1.79-1.79,2.65.92,7.07.31,8.03,3.69.69,2.41-.39,4.34-.24,6.18.23,2.84,3.06,13.36-.91,14.5-.35.1-6.68-.27-7.2-.41-5.14-1.44-2.62-6.97-2.47-10.97.06-1.63-.69-3.26-.6-4.62.04-.71,1.3-5.76,1.6-6.57Z"/>
      <path class="cls-1" d="M239.59,434.63c.89-3.2,7.59-3.33,10.31-2.42,1.02.71,1.74,16.68,1.45,18.94-.1.78-.34,2.14-.91,2.62-1.65,1.06-10.86,1.8-10.86-.2.89-5.01-1.2-14.59,0-18.94Z"/>
      <path class="cls-2" d="M175.07,446.68c-.96-.82-.91-2.7-.82-3.91.2-2.55,2.99-13.35,3.97-15.83,1.66-4.18,8.86-.48,9.28,2.21.37,2.33-3.27,16.6-5.09,17.77-1.65,1.06-6,.92-7.35-.24Z"/>
      <path class="cls-2" d="M315.93,412.38c2.27,1.85,9.22,12.43,9.56,15.36.3,2.62-1.68,6.16-4.34,6.38-2.41.2-12.16-14.69-12.57-17.22-.59-3.54,3.94-7.3,7.36-4.53Z"/>
      <path class="cls-2" d="M279.16,428.05c.86-1.46,6.76-3.67,8.64-1.37.56.68,5.23,15.7,5.26,16.77.16,4.3-6.37,6.18-9.2,2.94-1.06-1.22-5.19-17.52-4.71-18.34Z"/>
      <path class="cls-2" d="M141.96,432.41c-.6-.55-1.67-2.33-1.65-3.16.05-2.19,8.27-17.4,9.84-17.81l6.46,3.58c.69,2.4-6.41,15.31-8.56,17.28-2.1,1.93-3.86,2.14-6.1.11Z"/>
      <path class="cls-2" d="M76.81,158.91c1.25,2.16-2.1,8.08-4.29,9.23l-16.68-8.96,5.04-8.26c.87-.2,15.4,7.08,15.93,7.99Z"/>
      <path class="cls-2" d="M417.75,175.56c2.42,3.11,2.96,6.46-.63,8.77-.85.55-12.32,5.16-13.02,5.22-3.42.32-6.46-6.13-4.93-8.57.53-.85,16.63-8.08,18.58-5.41Z"/>
      <path class="cls-2" d="M410.05,161.08l-16.83,7.04c-4-3.96-6.72-7.17-.78-10.83,1.22-.75,11.64-4.86,12.55-4.81,2.21.11,6.08,7.38,5.05,8.6Z"/>
      <path class="cls-2" d="M49.86,173.91c3.11,1.3,17.62,5,17.32,8.57-.09,1.12-2.77,6.19-3.61,6.71l-1.04.25c-6.31-4.3-24.12-5.27-12.67-15.53Z"/>
      <path class="cls-1" d="M358.37,102.33c1.05,1.1,4.36,4.98,4.15,6.15-1.22,2.14-4.44,5.99-6.7,6.67-3.82,1.15-2.01-1.21-2.7-1.99-.64-.73-2.97-.05-3.82-1.56-2.73-4.82,3.2-12.64,7.36-11.12.8.29,1.13,1.25,1.7,1.85Z"/>
      <path class="cls-1" d="M116.2,104.53c.75.92,2.03,3.59,1.73,4.72-.07.28-3.36,4.4-3.61,4.55-4.82,2.9-10.57-2.09-10.47-6.76.01-.55,2.95-5.35,3.36-5.67,2.73-2.08,7.25,1.04,8.99,3.16Z"/>
      <path class="cls-1" d="M380.34,131.41c-1.42,1.02-3.11,3.51-5.99,2.77-.34-.09-4.96-4.49-5.11-4.81-.83-1.7.6-3.82,1.66-5.08,4.7-5.58,10.89-2.42,13.96,3.27-.31,2.44-2.91,2.69-4.52,3.84Z"/>
      <path class="cls-1" d="M96.64,126.51c1.05,1.93-3.46,8.08-5.97,8.39-2.31.21-7.43-5.27-8.78-7.32,1.37-2.34,4.34-6,7.34-6.01,1.03,0,7.2,4.54,7.41,4.94Z"/>
      <path class="cls-2" d="M381.46,363.31c3.11-.85,13.94,6.65,7.62,10.85-5.29,3.51-15.28-8.76-7.62-10.85Z"/>
      <path class="cls-2" d="M86.34,364.11c.43.67.19,3.18.04,4.17-.76,5.09-12.61,9.96-11.78,2.44.3-2.68,9.83-9.6,11.73-6.61Z"/>
      <path class="cls-2" d="M354.51,371.44c6.15,5.37,11.63,12.55,18.54,17.35.93,1.34.97,3.26.79,4.82-.13,1.21-11.76,10.68-13.53,12.57-1.09,1.88-2.88,4.47-4.64,6.39-1.55,1.7-4.38,3.12-6.71,2.73-2.07-.35-11.47-11.7-14.24-14.23-2.55-2.34-8.75-4.45-8.3-8.99.38-3.82,5.45-6.28,7.62-8.64,4.61-5.01,8.86-10.52,13.48-15.54l2.56-.4c1.26,1.57,2.95,2.64,4.43,3.94ZM359.25,388.81c-1.19-1.24-8.45-7.48-9.54-7.49l-10.43,8.87-.23,1.76c4.1,3.47,7.32,7.9,11,11.78.62.65.51.75,1.63.51.27-3.6,8.95-8.47,9.77-10.48,1.03-2.51-.74-3.44-2.19-4.95Z"/>
      <g>
        <path class="cls-1" d="M419.44,311.23c3.05,5.05.72,3.75-.42,5.62-2.38,3.89-3.24,5.65-7.41,8.78-9.92,7.45-24.04,12.56-36.24,8.35-2.49-1.11,4.85-12.64,8.68-12.62l1.44-3.22c1.8.14,4.28-3.33,13.56-5.47s11.37-2.19,20.39-1.44Z"/>
        <path class="cls-1" d="M425.73,215.75l4.03,18.29c-1.58,7.47-.77,15.36-2.49,22.8-3.87,16.66-18.94,29.02-32.17,38.47l11.61-33.77c.94-5.29,2.35-9.92,3.54-14.6.52-2.07-.95-7.65-.95-3.71,0,3.94-13.27,26.64-17.64,36.42-2.15,4.81-4.49,13.27-5.66,14.87s-2.74.8-2.74.8c-.83-9.84-1.4-18.78.08-28.73,2.94-19.73,14.37-33.18,29.49-44.67,2.66-2.02,9.55-8.89,12.9-6.16Z"/>
      </g>
      <path class="cls-2" d="M136.54,396.7c-5.61,6.02-12.14,11.33-17.28,17.84-4.1,2.37-6.08-.65-9.17-2.78l-18.14-19.76c0-1.95,23.84-24.32,25.57-24.02l22.22,22.07c1.45,3.1-1.5,4.81-3.2,6.65ZM119.86,383.46c-.94-.98.02-3.83-3.65-2.77l-12.34,9.83,11.4,13.74,13.06-13.07c.15-1.05-7.27-6.48-8.47-7.73Z"/>
      <g>
        <path class="cls-2" d="M345.04,320.24c-15.62,22.47-39.85,33.46-56.92,53.2-3.01,3.48-10.97,13.98-12,17.99-.58,2.26-.98,14.33-1.74,14.8-2.03.27-4.74,1.37-6.69,1.17-2.89-.3-3.12-3.33-6.95-1.51-.62.3-.63,1.5-1.08,1.51-1,.03-10.61-1.4-11.58-1.76-.57-.21-1.07-.42-1.45-.92-2.44-3.02.28-32.61,1.25-38.38,6.37-37.73,26.74-51,52.14-74.95,5.3-5,14.88-17.87,20.89-19.76,2.56-.8,5.91.16,6.33,2.81,1.08,6.88-9.27,20.48-13.81,25.62-5.55,6.28-23.35,18.39-21.71,27.19,1.98,10.59,15.08-5.97,17.96-8.23,1.87-1.47,5.26-2.92,7.23-4.44,13.36-10.28,22.49-21.87,25.27-39.46,2.23-14.07-1.25-45.89,10.72-54.8,3.41-2.54,8.14-4.41,9.02,1.23.92,5.95-.05,15.04.02,21.23.34,29.98,1.03,51.71-16.87,77.45Z"/>
        <path class="cls-2" d="M173.28,330.04c.86.12,2.72-3.25,2.26-4.29-1.56-3.55-8.78-13.04-11.72-15.84-5.31-5.07-11.14-8.93-15.77-15.2-2.64-3.58-10.23-16.83-8.35-20.69,2.17-2.96,5.88-2.61,8.62-.7,1.07.75,11.73,12.07,12.82,13.59.74,1.03.6,2.93,1.27,3.5.61.52,2.32.31,3.21.95,2.91,2.09,5.54,6.31,7.9,8.45,7.49,6.78,16.87,13.27,23.41,21.38,19.39,24.03,23.82,53.64,21.77,83.88-.6.92-3.58,1.43-4.77,1.55-3.43.35-18.42.76-21.2-.11-1.46-.46-1.71-5.55-2.01-7.5-1.23-8.02-2.74-13.66-8.77-21.19-11.49-14.33-29.06-24.63-42.51-37.25-35.26-33.1-39.36-68-35.65-115.14.11-1.38.76-6.55,1.55-7.13,11.65-.75,15.6,13.59,16.63,22.96,1.98,18.01-.17,34.23,7.3,51.9,5.81,13.75,13.34,16.43,24.21,24.73,3.57,2.72,11.92,11.39,15.5,12.13.76.16,4.09,0,4.3.03Z"/>
        <path class="cls-3" d="M226.47,1.31c10.16,4.65,22.91,20.07,25.52,30.98,4.84,20.19-8.76,38.35-.16,58.57,5,11.74,16.3,18.01,22.72,28.62.53.88,2.21,7.59,4.11,5.32,7.55-9.02-5.4-32.09-5.17-43,.05-2.19.63-8.63,2.41-9.54,1.4-.86,3.85.66,4.76,1.82,2.56,3.27,5.7,9.34,8.54,13.35,12.07,17.07,24.24,33.05,22.88,55.81-.83,13.83-6.83,25.44-10.13,38.4,2.69.18,4.95.07,7.55-.73,5.38-1.67,13.86-7.41,17.26-11.94,1.91-2.55,9.42-19.77,13.07-17.31,5.99,32.06-7.37,63.39-29.18,86.45-2.44,2.58-12.02,11.99-14.64,12.99-1.03.4-1.44-.18-1.2-1.19,4.72-15.54-4.7-31.87-12.58-45-7.5-12.51-28.09-36.66-40.28-43.79-5.58-3.26-9.42-3.24-15,0-13.78,8.01-36.46,33.54-43.84,45.94-7.52,12.62-14.18,31.91-10.63,42.47.65,1.94-.96,1.81-1.58,1.58-24.26-14.68-43.31-41.88-48.07-69.94-.86-5.06-.5-10.13-.8-14.92-.19-3.09-3.01-18.62,3.92-13.45,4.63,3.45,10.02,12.34,15.38,16.98,2.25,1.95,14.22,10.93,16.25,10.7,3.61-.41,1.93-7.76,1.4-10.2-3.29-15.17-10.03-26.46-8.46-43.38.61-6.56,5.96-33.62,13.8-34.36,3.18.66,1.57,6.17,1.86,8.97,1.13,10.81,3.41,17.08,9.62,25.9,3.83,5.45,9.52,9.68,11.78,16.24,1.79,1.14,6.42-2.21,7.21-4.05,4.19-9.67-7.43-31.36-6.5-43.6,2.27-29.87,39.58-42.98,37.91-76.62-.34-6.84-3.3-11.89-3.98-18.5,0-1.59,1.58-.8,4.24.42Z"/>
        <path class="cls-3" d="M249.62,201.86c6.93,5.02,23.25,19.1,26.99,26.3,3.42,6.6.34,8.72-3.62,13.84-10.69,13.83-31.27,31.77-49.69,24.48-7.61-3.01-20.54-14.59-29.22-24.06-7.58-8.27-5.53-12.3-4.74-14.21.32-.76,12.94-15.96,19.55-21.28,13.42-10.79,25.67-15.99,40.73-5.07ZM220.55,218.4c-19.7,19.13,7.54,44.93,25.2,30.32,19.61-16.22-6.18-48.79-25.2-30.32Z"/>
        <path class="cls-3" d="M233.29,343.46c-3.01-4.77-7.97-8.42-10.58-13.5-8.53-16.6,7.84-25.88,10.97-40.97,10.27,4.94,13.45,17.4,8.44,27.4-3.75,7.48-6.51,9.23-7.64,18.81-.13,1.09.67,9.28-1.18,8.26Z"/>
      </g>
      <g>
        <path class="cls-1" d="M59.1,226.36c11.25,9.58,19.97,20.45,22.32,35.53.46,2.96.04,6.94.38,10.05.49,4.53,2.51,9.17,1.55,14.25,0,0-1.64-1.93-2.43.44-.78,2.36.79,10.25.79,10.25-4.82-.14-3.85-4.92-5.29-8.49-.48-1.19-.89-2-1.43-3.28-6.25-14.8-13.52-29.41-22.1-42.69l19.34,53.67-15.48-12.17c-17.65-14.6-22.29-36.13-19.17-58.4.44-3.13,1.72-6.69,2.39-9.84,3.2-.79,5.65.7,8.32,2.13,4.2,2.26,7.41,5.65,10.8,8.54Z"/>
        <path class="cls-1" d="M90.4,331.62c.78,5.01-10.3,4.06-13.71,3.84-9.76-.61-25.68-9.31-30.34-17.81-.63-1.15-2.09-3.25-1.69-4.5.51-1.62,7.37-1.86,9.02-2.09,15.16-2.1,35.95,15.55,36.72,20.56Z"/>
      </g>
    </g>
  </g>
</svg>