<svg id="Camada_2" data-name="Camada 2" width="256" xmlns="http://www.w3.org/2000/svg" viewBox="0 0 256 235.94">
    <defs>
        <style>
            .cls-1 {
                fill: #3a614d;
            }

            .cls-2 {
                fill: #8c340f;
            }

            .cls-3 {
                fill: #ce590f;
            }
        </style>
    </defs>
    <g id="marca">
        <g id="logo">
            <g>
                <path class="cls-3"
                    d="M251.5,197.47c5.34,5.66,5.44,21.84,2.85,28.72-4.09,10.87-15.31,8.71-24.79,8.58-1.59-1.07-.65-1.9.22-3.05,0-10.49,1.27-22.63.38-33.03-.19-2.27-1.35-2.26-1.68-3.41-.37-1.28.85-1.43,1.8-1.51,5.82-.49,16.97-.81,21.22,3.7ZM244.94,202.24c-.85-.77-2.51-1.42-3.66-1.56-.73-.09-3.11-.3-3.35.46l-.05,26.19c1.32,2.09,5.27.79,6.87-.58,1.79-1.54,3.23-5.21,3.25-5.42.4-3.22.28-12.35-.76-15.29-.33-.93-1.6-3.16-2.31-3.8Z" />
                <path class="cls-3"
                    d="M196.16,234.92c-1.25-1.81-.1-2.01.22-3.21s.45-3.09.51-4.39c.43-9.84-.29-20.23-.5-30.04-.41-1.23-2.41-3.17.2-3.51,1.43-.19,5.11-.15,6.59,0,.51.05.98-.01,1.35.44,2.05,3.5,3.72,7.2,5.59,10.8.34.64.41,1.4.71,1.97,1.45,2.78,4.41,7.97,4.7,8.27s.29,0,.29-.45v-16.69c0-1.82-2.69-3.82-.14-4.32.79-.15,6.71-.14,7.38.06,2.64.76-.09,2.87-.09,3.07v37.26c0,1.32-3.36.48-4.04.43-1.13-.07-1.52.86-2.53-.43-2.17-4.16-11.47-22.95-11.91-23.26-.27-.19-.6.23-.6.3v17.29c0,.24.29,2.61.37,2.91.21.81,1.62,1.8.98,2.9-.08.13-.83.6-.9.6h-8.2Z" />
                <path class="cls-3"
                    d="M180.56,227.67c2.42-2.35,1.49-10.35,1.58-13.77.12-4.35,1.12-12.27-.13-16.24-.49-1.56-2.26-1.95-.69-3.8.35-.2,7.29-.18,8.12-.05,2.98.48.66,2.96.46,4.59-1.05,8.67.62,18.43-.29,26.84-.58,5.34-3.57,7.87-8.12,9.7-.23.09-3.16.99-4.84,1-3.46.02-8.56-1.82-10.53-4.8-2.65-4-1.56-8.9-1.71-13.36-.17-5.02-.99-11.13-.45-16.11.07-.67.03-4.42-.04-4.69-.17-.6-2.24-2.21-.53-3.04.58-.28,9.99-.27,10.43,0,1.7,1.02-1.4,3.7-1.19,5.07.61,7.95-.85,17.16.08,24.96.1.85.46,2.54.97,3.21,1.35,1.78,5.29,2.06,6.9.5Z" />
                <path class="cls-3"
                    d="M156.78,201.14c-2.38-6.38-8.54-7.99-14.94-7.14-4.26.57-7.81,3.32-9.31,7.25-2.08,5.46-1.83,21.07-.07,26.72,3.06,9.84,18.16,10.41,23.41,2.08,3.45-5.46,3.1-23.06.91-28.91ZM149.97,222.2c-.2,2.63-.84,6.04-3.88,6.73-3.32.75-4.98-1.01-5.88-3.89-1.13-3.61-1.12-16.59-.19-20.24.53-2.08,1.57-3.98,3.9-4.37,1.41-.23,2.71-.15,3.82.79.31.26,1.32,1.19,1.86,2.29.53,1.1.74,13.88.37,18.69Z" />
                <path class="cls-3"
                    d="M124.75,198.44c2.86,4.47,1.59,8.19-1.32,12.19-.14.73-2.33,1.27-2.08,1.79.13.27,2.96,2.2,3.7,3.16,3.64,4.72,3.03,13.43-2.11,16.92-4.02,2.72-15.38,2.89-20.23,2.45-1.97-.18-2.49-.85-1.42-2.63.71-1.2.9-1.48,1-3.18.53-8.38.27-18.98-.03-27.45-.05-1.38.06-2.97-.34-4.4-.25-.87-1.72-1.13-.8-2.7.37-.62.6-.71,1.29-.8,2.99-.4,11.48-.28,14.59.05,3.57.37,5.87,1.66,7.76,4.62ZM110.02,200.05v9.99c.44.62,1.25.49,1.93.45,3.41-.2,6.25-1.38,6.43-5.2.25-5.31-4.26-5.74-8.36-5.23ZM110.02,216.74v11.48c0,.08.31.7.5.76,2.21.09,6.14-.36,7.31-2.48.58-1.05,1.42-5.55.98-6.46s-.43-1.22-1.33-1.96-4.94-1.37-7.46-1.34Z" />
                <path class="cls-3"
                    d="M96.3,201.39c-.47,1.65-3.72-.26-4.95-.41-1.54-.19-4.6-.26-6.19-.22-.33,0-.7.13-1.01.26-.57.67-.04,1.43-.05,2.17-.02,1.26-.38,6.6.12,7.31,2.6,1.6,6.53-1.46,8.59-1.15,1.28.19,1.08,2.24,1.12,3.35.04,1.2.22,5.13-.91,5.68-1.79.48-3.33-.89-5.22-1.04-1.31-.11-2.45.12-3.71.31l-.25,9.6.98.78c2.33-.63,4.85.1,7.15-.27,1.84-.3,5.83-3.21,5.51.71-.04.53-1.11,4.71-1.32,5.26-.12.29-.7,1.18-.9,1.18h-19.67c-.21,0-.72-.99-.72-1.34,0-.91,1.24-1.86,1.32-2.97.51-6.87-.01-16.19-.16-23.27-.06-2.94.04-6.95-.3-9.81-.12-1.01-1.08-1.76-.42-3.14.07-.14.54-.6.59-.6h19.08c.41,0,1.34,1.81,1.34,2.24,0,1.2.24,4.51,0,5.37Z" />
                <path class="cls-3"
                    d="M62.32,217.34c2.59,4.01,3.47,8.59,5.95,12.67.57.93,3.33,3.72,1.82,4.78-.53.37-7.4.25-8.09-.29-.72-.57-2.46-4.8-2.96-5.98-.79-1.88-2.56-7.81-3.73-8.79-.67-.56-2.28-.34-3.13-.16-1.39,1.12-.33,2.38-.29,3.58.1,2.85-.48,5.56.58,8.36.41,1.07,2.37,3.13-.12,3.43-1.12.14-8.1.12-8.8-.17-1.75-.73-.14-2.13.15-3.12,1.67-5.81.32-23.1.43-30.27,0-.61-.22-1.89-.28-2.13-.13-.55.08-1.21-.13-1.91-.24-.77-2.1-2.13-.64-3.29.5-.4,7.48-.29,8.68-.28,2.98,0,7.22-.26,10.04.69,3.26,1.1,6.55,4.75,7.01,8.19s.12,9.76-2.31,12.44c-1.02,1.12-2.71,1.92-4.17,2.24ZM57.4,200.34c-1.22-.32-3.67.24-5.07,0-.2.12-.31.29-.39.51-.34.93-.23,10-.08,11.28.04.32-.01.69.29.9,2.91.44,7.11.06,8.16-3.2.76-2.34.75-6.37-1.09-8.19-.15-.14-1.73-1.27-1.83-1.3Z" />
                <path class="cls-3"
                    d="M28.03,197.53c-.21-1.11-1.73-1.68-1.03-3.14.07-.14.55-.6.59-.6h9.39c1.45,2.02-.39,2.56-.6,4.31s.1,4.09.02,5.98c-.29,7.11-1.33,20.46.06,27.04.18.87,1.78,2.89.23,3.65-1.27.62-5.18-.09-6.71-.15-.84-.03-2.08.84-2.86-.12-.7-.85.78-2.85.92-4.2.19-1.76-.03-3.98,0-5.81.49-.31.3-1.13.3-1.64.08-6.54.3-13.34,0-19.83,0-.1-.05-4.11-.31-5.5Z" />
                <path class="cls-3"
                    d="M8.07,193.79c2.14-.05,4.84.25,7.01.29,1.48.03,5.87-.36,6.88.22.88.51,2.45,6.11,2.15,7-.73,2.19-4.07-.34-5.45-.34h-8.5l-.27,11.4c.29.15,6.03.19,6.65.01,1.01-.28,2.49-1.86,3.01-1.86,2.55-.01.71,7.66,1.04,9.17-.52,2.47-5.1-1.43-6.11-1.39-.22,0-3.5.45-4.57,1.04-.03,3.97-.76,8.37-.34,12.32.21,1.91,2.44,2.07.74,3.86H.77c-.47,0-.79-1.02-.77-1.45.04-1.04.96-1.54,1.14-2.2.66-2.29.08-5.77.14-8.16.2-8.51.71-17.6-.06-26.07-.16-1.74-1.88-2.89.89-3.59.89-.27,1.33.03,1.79,0,.2-.01,1.79,0,2.09,0,.79-.02,1.72-.26,2.09-.27Z" />
            </g>
            <g>
                <path class="cls-2"
                    d="M106.53,17.9c-10.58,2.8-20.72,7.3-29.48,13.9-50.88,38.34-40.86,117.07,16.82,142.9,60.68,27.18,127.46-24.12,116.92-90.09-4.48-28.04-24.46-53.57-51.21-63.55-2.3-.86-7.9-1.97-9.5-3.01-1.11-.72.47-2.52-.32-4,14.92,2.86,28.56,10.81,39.5,21.15,30.72,29.03,35.83,77.25,11.59,112.36-25.17,36.46-71.67,49.14-111.97,29.45-1.45-.71-6.59-3.23-7.5-4.06-.35-.32-.12-.84-.19-.92s-.59.24-.89.13c-1.14-.41-6.01-4.2-7.29-5.21-46.61-36.8-43.7-110.23,6.84-142.18,8.01-5.06,16.75-8.64,25.91-11.01.8.24.51,3.3.77,4.15Z" />
                <path class="cls-1"
                    d="M121.25,163.47s.58-.47.67-.68c1,.35,2.67.12,3.03,1.39.26.91-.15,1.64-.09,2.33.09,1.07,1.15,5.05-.35,5.48-.13.04-2.52-.1-2.72-.16-1.94-.54-.99-2.63-.93-4.14.02-.62-.26-1.23-.23-1.75.02-.27.49-2.18.61-2.48Z" />
                <path class="cls-1"
                    d="M130.38,164.13c.33-1.21,2.87-1.26,3.89-.91.39.27.66,6.3.55,7.15-.04.29-.13.81-.34.99-.62.4-4.1.68-4.1-.08.34-1.89-.45-5.51,0-7.15Z" />
                <path class="cls-2"
                    d="M106.02,168.68c-.36-.31-.34-1.02-.31-1.48.07-.96,1.13-5.04,1.5-5.98.63-1.58,3.34-.18,3.51.83.14.88-1.24,6.27-1.92,6.71-.62.4-2.27.35-2.77-.09Z" />
                <path class="cls-2"
                    d="M159.21,155.72c.86.7,3.48,4.69,3.61,5.8.11.99-.64,2.33-1.64,2.41-.91.08-4.59-5.55-4.75-6.5-.22-1.34,1.49-2.76,2.78-1.71Z" />
                <path class="cls-2"
                    d="M145.33,161.64c.32-.55,2.55-1.38,3.26-.52.21.26,1.97,5.93,1.99,6.33.06,1.62-2.41,2.33-3.47,1.11-.4-.46-1.96-6.62-1.78-6.93Z" />
                <path class="cls-2"
                    d="M93.52,163.29c-.23-.21-.63-.88-.62-1.19.02-.83,3.12-6.57,3.72-6.72l2.44,1.35c.26.91-2.42,5.78-3.23,6.52s-1.46.81-2.3.04Z" />
                <path class="cls-2" d="M68.91,60.01c.47.81-.79,3.05-1.62,3.49l-6.3-3.38,1.9-3.12c.33-.08,5.82,2.67,6.01,3.02Z" />
                <path class="cls-2"
                    d="M197.66,66.3c.92,1.18,1.12,2.44-.24,3.31-.32.21-4.65,1.95-4.92,1.97-1.29.12-2.44-2.31-1.86-3.24.2-.32,6.28-3.05,7.01-2.04Z" />
                <path class="cls-2" d="M194.76,60.83l-6.35,2.66c-1.51-1.5-2.54-2.71-.29-4.09.46-.28,4.4-1.83,4.74-1.82.83.04,2.3,2.79,1.91,3.25Z" />
                <path class="cls-2" d="M58.74,65.67c1.18.49,6.65,1.89,6.54,3.24-.04.42-1.05,2.34-1.36,2.53l-.39.09c-2.38-1.62-9.11-1.99-4.78-5.87Z" />
                <path class="cls-1"
                    d="M175.24,38.64c.4.41,1.64,1.88,1.57,2.32-.46.81-1.68,2.26-2.53,2.52-1.44.43-.76-.46-1.02-.75-.24-.27-1.12-.02-1.44-.59-1.03-1.82,1.21-4.77,2.78-4.2.3.11.43.47.64.7Z" />
                <path class="cls-1"
                    d="M83.79,39.47c.28.35.77,1.35.65,1.78-.03.11-1.27,1.66-1.36,1.72-1.82,1.09-3.99-.79-3.95-2.55,0-.21,1.11-2.02,1.27-2.14,1.03-.78,2.74.39,3.39,1.19Z" />
                <path class="cls-1"
                    d="M183.54,49.63c-.54.38-1.17,1.33-2.26,1.05-.13-.03-1.87-1.7-1.93-1.82-.32-.64.23-1.44.63-1.92,1.77-2.11,4.11-.92,5.27,1.24-.12.92-1.1,1.02-1.71,1.45Z" />
                <path class="cls-1" d="M76.4,47.77c.4.73-1.31,3.05-2.25,3.17-.87.08-2.81-1.99-3.32-2.77.52-.89,1.64-2.26,2.77-2.27.39,0,2.72,1.71,2.8,1.86Z" />
                <path class="cls-2" d="M183.96,137.2c1.18-.32,5.27,2.51,2.88,4.1-2,1.33-5.77-3.31-2.88-4.1Z" />
                <path class="cls-2" d="M72.51,137.5c.16.25.07,1.2.02,1.58-.29,1.92-4.76,3.76-4.45.92.11-1.01,3.71-3.63,4.43-2.5Z" />
                <path class="cls-2"
                    d="M173.78,140.27c2.32,2.03,4.39,4.74,7,6.55.35.51.36,1.23.3,1.82-.05.46-4.44,4.03-5.11,4.75-.41.71-1.09,1.69-1.75,2.41-.59.64-1.65,1.18-2.53,1.03-.78-.13-4.33-4.42-5.38-5.37-.96-.88-3.3-1.68-3.13-3.39.14-1.44,2.06-2.37,2.88-3.26,1.74-1.89,3.34-3.97,5.09-5.87l.97-.15c.48.59,1.11,1,1.67,1.49ZM175.57,146.82c-.45-.47-3.19-2.83-3.6-2.83l-3.94,3.35-.09.66c1.55,1.31,2.76,2.98,4.15,4.45.23.25.19.28.61.19.1-1.36,3.38-3.2,3.69-3.96.39-.95-.28-1.3-.83-1.87Z" />
                <g>
                    <path class="cls-1"
                        d="M198.3,117.53c1.15,1.91.27,1.42-.16,2.12-.9,1.47-1.22,2.13-2.8,3.32-3.75,2.81-9.08,4.74-13.69,3.15-.94-.42,1.83-4.77,3.28-4.77l.54-1.21c.68.05,1.62-1.26,5.12-2.06s4.29-.83,7.7-.55Z" />
                    <path class="cls-1"
                        d="M200.68,81.47l1.52,6.91c-.6,2.82-.29,5.8-.94,8.61-1.46,6.29-7.15,10.96-12.15,14.53l4.38-12.75c.35-2,.89-3.74,1.34-5.51.2-.78-.36-2.89-.36-1.4s-5.01,10.06-6.66,13.75c-.81,1.82-1.7,5.01-2.14,5.61s-1.04.3-1.04.3c-.31-3.72-.53-7.09.03-10.85,1.11-7.45,5.43-12.53,11.14-16.87,1-.76,3.61-3.36,4.87-2.33Z" />
                </g>
                <path class="cls-2"
                    d="M91.47,149.8c-2.12,2.27-4.58,4.28-6.53,6.74-1.55.89-2.3-.25-3.46-1.05l-6.85-7.46c0-.74,9-9.18,9.66-9.07l8.39,8.33c.55,1.17-.57,1.82-1.21,2.51ZM85.17,144.8c-.35-.37,0-1.45-1.38-1.05l-4.66,3.71,4.31,5.19,4.93-4.94c.06-.4-2.74-2.45-3.2-2.92Z" />
                <g>
                    <path class="cls-2"
                        d="M170.2,120.93c-5.9,8.48-15.05,12.63-21.5,20.09-1.14,1.31-4.14,5.28-4.53,6.79-.22.85-.37,5.41-.66,5.59-.77.1-1.79.52-2.53.44-1.09-.11-1.18-1.26-2.62-.57-.24.11-.24.57-.41.57-.38.01-4.01-.53-4.37-.66-.21-.08-.41-.16-.55-.35-.92-1.14.1-12.31.47-14.49,2.41-14.25,10.1-19.26,19.69-28.3,2-1.89,5.62-6.75,7.89-7.46.96-.3,2.23.06,2.39,1.06.41,2.6-3.5,7.73-5.22,9.68-2.1,2.37-8.82,6.94-8.2,10.27.75,4,5.69-2.25,6.78-3.11.71-.56,1.99-1.1,2.73-1.68,5.04-3.88,8.49-8.26,9.54-14.9.84-5.31-.47-17.33,4.05-20.69,1.29-.96,3.07-1.67,3.41.46.35,2.25-.02,5.68,0,8.02.13,11.32.39,19.53-6.37,29.25Z" />
                    <path class="cls-2"
                        d="M105.34,124.63c.32.04,1.03-1.23.85-1.62-.59-1.34-3.32-4.92-4.43-5.98-2-1.91-4.21-3.37-5.95-5.74-1-1.35-3.86-6.35-3.15-7.81.82-1.12,2.22-.99,3.25-.26.4.28,4.43,4.56,4.84,5.13.28.39.23,1.11.48,1.32.23.2.88.12,1.21.36,1.1.79,2.09,2.38,2.98,3.19,2.83,2.56,6.37,5.01,8.84,8.07,7.32,9.08,8.99,20.26,8.22,31.68-.23.35-1.35.54-1.8.58-1.3.13-6.96.29-8.01-.04-.55-.17-.65-2.09-.76-2.83-.46-3.03-1.04-5.16-3.31-8-4.34-5.41-10.97-9.3-16.05-14.07-13.31-12.5-14.86-25.68-13.46-43.48.04-.52.29-2.48.59-2.69,4.4-.28,5.89,5.13,6.28,8.67.75,6.8-.06,12.93,2.76,19.6,2.19,5.19,5.04,6.21,9.14,9.34,1.35,1.03,4.5,4.3,5.85,4.58.29.06,1.54,0,1.62.01Z" />
                    <path class="cls-3"
                        d="M125.43.49c3.84,1.76,8.65,7.58,9.64,11.7,1.83,7.63-3.31,14.48-.06,22.12,1.89,4.43,6.16,6.8,8.58,10.81.2.33.84,2.87,1.55,2.01,2.85-3.41-2.04-12.12-1.95-16.24.02-.83.24-3.26.91-3.6.53-.33,1.46.25,1.8.69.97,1.23,2.15,3.53,3.23,5.04,4.56,6.45,9.15,12.48,8.64,21.07-.31,5.22-2.58,9.61-3.83,14.5,1.02.07,1.87.03,2.85-.28,2.03-.63,5.23-2.8,6.52-4.51.72-.96,3.56-7.46,4.93-6.54,2.26,12.11-2.78,23.94-11.02,32.65-.92.97-4.54,4.53-5.53,4.91-.39.15-.54-.07-.45-.45,1.78-5.87-1.78-12.04-4.75-16.99-2.83-4.72-10.61-13.85-15.21-16.54-2.11-1.23-3.56-1.22-5.66,0-5.2,3.03-13.77,12.67-16.55,17.35s-5.36,12.05-4.01,16.04c.25.73-.36.68-.6.6-9.16-5.54-16.36-15.81-18.15-26.41-.32-1.91-.19-3.82-.3-5.63-.07-1.17-1.14-7.03,1.48-5.08,1.75,1.3,3.78,4.66,5.81,6.41.85.74,5.37,4.13,6.14,4.04,1.36-.15.73-2.93.53-3.85-1.24-5.73-3.79-9.99-3.2-16.38.23-2.48,2.25-12.7,5.21-12.98,1.2.25.59,2.33.7,3.39.43,4.08,1.29,6.45,3.63,9.78,1.45,2.06,3.59,3.66,4.45,6.13.68.43,2.42-.83,2.72-1.53,1.58-3.65-2.8-11.84-2.45-16.47.86-11.28,14.95-16.23,14.32-28.93-.13-2.58-1.25-4.49-1.5-6.99,0-.6.6-.3,1.6.16Z" />
                    <path class="cls-3"
                        d="M134.17,76.23c2.62,1.9,8.78,7.21,10.19,9.93,1.29,2.49.13,3.29-1.37,5.23-4.04,5.22-11.81,12-18.77,9.24-2.88-1.14-7.76-5.51-11.03-9.09-2.86-3.12-2.09-4.65-1.79-5.37.12-.29,4.89-6.03,7.38-8.04,5.07-4.07,9.69-6.04,15.38-1.91ZM123.19,82.47c-7.44,7.22,2.85,16.97,9.52,11.45,7.4-6.12-2.33-18.42-9.52-11.45Z" />
                    <path class="cls-3"
                        d="M128.01,129.7c-1.14-1.8-3.01-3.18-3.99-5.1-3.22-6.27,2.96-9.77,4.14-15.47,3.88,1.87,5.08,6.57,3.19,10.35-1.42,2.83-2.46,3.48-2.89,7.1-.05.41.25,3.5-.45,3.12Z" />
                </g>
                <g>
                    <path class="cls-1"
                        d="M62.23,85.48c4.25,3.62,7.54,7.72,8.43,13.42.17,1.12.01,2.62.14,3.79.19,1.71.95,3.46.59,5.38,0,0-.62-.73-.92.16s.3,3.87.3,3.87c-1.82-.05-1.45-1.86-2-3.21-.18-.45-.34-.76-.54-1.24-2.36-5.59-5.11-11.1-8.34-16.12l7.3,20.27-5.84-4.6c-6.66-5.51-8.42-13.64-7.24-22.05.17-1.18.65-2.53.9-3.72,1.21-.3,2.13.26,3.14.81,1.59.85,2.8,2.14,4.08,3.23Z" />
                    <path class="cls-1"
                        d="M74.05,125.23c.29,1.89-3.89,1.53-5.18,1.45-3.69-.23-9.7-3.52-11.46-6.72-.24-.43-.79-1.23-.64-1.7.19-.61,2.78-.7,3.41-.79,5.73-.79,13.57,5.87,13.87,7.76Z" />
                </g>
            </g>
        </g>
    </g>
</svg>