<?xml version="1.0" encoding="UTF-8"?>
<svg id="firebound-icon" data-name="Firebound Icon" xmlns="http://www.w3.org/2000/svg" viewBox="0 0 161.78 161.78">
    <defs>
        <style>
            #icon {
                fill: #ce590f;
                /* fill: #20150a; */
            }

            @media (prefers-color-scheme: dark) {
                #icon {
                    fill: #FAFAFA;
                }
            }
        </style>
    </defs>
    <g id="icon">
        <g>
            <path
                d="M53.95.67c5.21,2.39,11.75,10.3,13.1,15.9,2.48,10.36-4.5,19.68-.08,30.05,2.56,6.02,8.37,9.24,11.66,14.69.27.45,1.14,3.89,2.11,2.73,3.87-4.63-2.77-16.46-2.65-22.06.02-1.12.32-4.43,1.24-4.89.72-.44,1.98.34,2.44.93,1.31,1.68,2.93,4.79,4.38,6.85,6.19,8.76,12.44,16.96,11.74,28.63-.42,7.09-3.51,13.05-5.2,19.7,1.38.09,2.54.04,3.87-.38,2.76-.86,7.11-3.8,8.86-6.13.98-1.31,4.83-10.14,6.7-8.88,3.07,16.45-3.78,32.53-14.97,44.36-1.25,1.32-6.17,6.15-7.51,6.67-.53.2-.74-.09-.62-.61,2.42-7.97-2.41-16.35-6.45-23.09-3.85-6.42-14.41-18.81-20.67-22.47-2.86-1.67-4.84-1.66-7.7,0-7.07,4.11-18.71,17.21-22.49,23.57-3.86,6.48-7.28,16.37-5.45,21.79.34,1-.49.93-.81.81C13,121.31,3.22,107.35.78,92.95c-.44-2.6-.26-5.2-.41-7.65-.1-1.58-1.55-9.55,2.01-6.9,2.37,1.77,5.14,6.33,7.89,8.71,1.16,1,7.3,5.61,8.34,5.49,1.85-.21.99-3.98.72-5.23-1.69-7.79-5.15-13.58-4.34-22.26.31-3.37,3.06-17.25,7.08-17.63,1.63.34.81,3.16.95,4.6.58,5.55,1.75,8.77,4.93,13.29,1.97,2.79,4.88,4.97,6.04,8.33.92.58,3.29-1.13,3.7-2.08,2.15-4.96-3.81-16.09-3.33-22.37,1.16-15.33,20.31-22.05,19.45-39.31-.17-3.51-1.69-6.1-2.04-9.49,0-.81.81-.41,2.17.22Z" />
            <path
                d="M65.83,103.57c3.55,2.58,11.93,9.8,13.85,13.49,1.76,3.39.17,4.47-1.86,7.1-5.48,7.09-16.04,16.3-25.5,12.56-3.91-1.55-10.54-7.48-14.99-12.34-3.89-4.24-2.84-6.31-2.43-7.29.16-.39,6.64-8.19,10.03-10.92,6.89-5.53,13.17-8.2,20.9-2.6ZM50.91,112.06c-10.11,9.81,3.87,23.05,12.93,15.56,10.06-8.32-3.17-25.03-12.93-15.56Z" />
        </g>
    </g>
</svg>