<?xml version="1.0" encoding="UTF-8"?>
<svg id="Camada_2" data-name="Camada 2" xmlns="http://www.w3.org/2000/svg" viewBox="0 0 66.78 88.27">
  <defs>
    <style>
      .cls-1 {
        fill: #3a614d;
      }
    </style>
  </defs>
  <g id="auxiliares">
    <g>
      <path class="cls-1" d="M26.88,10.89c11.25,9.58,18.14,16.14,22.32,35.53s.29,34.99.29,34.99c-4.82-.14-24.95-12.96-24.95-12.96C6.89,53.86,2.25,32.33,5.37,10.06c.44-3.13,1.72-6.69,2.39-9.84,3.2-.79,5.65.7,8.32,2.13,4.2,2.26,7.41,5.65,10.8,8.54Z"/>
      <path class="cls-1" d="M49.3,78.99c2.42,4.45-8.33,7.3-11.61,8.25-9.4,2.72-27.32-.09-34.57-6.52-.98-.87-3.06-2.36-3.12-3.67-.07-1.7,6.31-4.24,7.79-5.01,13.56-7.09,39.08,2.5,41.51,6.95Z"/>
      <path class="cls-1" d="M41.77,76.94c2.64,4.33,10.49-3.54,12.96-5.9,7.07-6.76,13.63-23.68,11.71-33.17-.26-1.28-.5-3.83-1.61-4.54-1.43-.91-6.83,3.33-8.25,4.22-12.94,8.17-17.45,35.06-14.81,39.39Z"/>
    </g>
  </g>
</svg>