<?xml version="1.0" encoding="UTF-8"?>
<svg id="Camada_2" data-name="Camada 2" xmlns="http://www.w3.org/2000/svg" viewBox="0 0 76.89 103.04">
  <defs>
    <style>
      .cls-1 {
        fill: #3a614d;
      }
    </style>
  </defs>
  <g id="auxiliares">
    <g>
      <path class="cls-1" d="M50.22,18.75c8.12,14.51,12.82,24.13,9.64,46.24s-13.39,37.04-13.39,37.04c-5.03-2.04-21.26-23.45-21.26-23.45-12.91-22.32-9.38-46.86,2.64-69.14,1.69-3.13,4.44-6.39,6.38-9.45,3.68.42,5.69,2.95,7.94,5.51,3.55,4.03,5.61,8.87,8.05,13.24Z"/>
      <path class="cls-1" d="M46.86,99.82c-.21,5.7-12.25,2.29-15.98,1.33-10.66-2.75-26.41-15.76-29.75-26.14-.45-1.4-1.61-4.04-.91-5.34.91-1.69,8.54-.49,10.42-.39,17.21.91,36.43,24.83,36.22,30.54Z"/>
      <path class="cls-1" d="M48.73,77.98c2.97,4.88,11.81-3.99,14.59-6.65,7.96-7.61,15.34-26.65,13.18-37.35-.29-1.45-.57-4.31-1.81-5.11-1.61-1.03-7.69,3.75-9.28,4.75-14.57,9.2-19.65,39.47-16.68,44.34Z"/>
    </g>
  </g>
</svg>