<?xml version="1.0" encoding="UTF-8"?>
<svg id="Camada_2" data-name="Camada 2" xmlns="http://www.w3.org/2000/svg" viewBox="0 0 265.04 36.49">
  <defs>
    <style>
      .cls-1 {
        fill: #3a614d;
      }

      .cls-2 {
        fill: #8c340f;
      }
    </style>
  </defs>
  <g id="auxiliares">
    <g>
      <path class="cls-1" d="M254.09,24.81c.96-1.98,8.59-1.88,10.3-.02,1.52,1.76.02,9.11-.86,11.4-2.7.25-7.4-.05-9.15-2.48-.6-.83-.48-8.5-.29-8.9Z"/>
      <path class="cls-2" d="M234.03,17.85c1.37-2.08,8.17-1.73,10.17-.29l-.57,18.93-9.64-.82c-.57-.68-.54-16.94.04-17.82Z"/>
      <path class="cls-2" d="M207.23,35.19c-.14-3.37-2.92-18.08.45-19.32,1.05-.39,6.78-.11,7.61.44l.66.83c-1.23,7.54,5.42,24.09-8.72,18.05Z"/>
      <path class="cls-1" d="M179.98,14.05c.04-.12,1.52-1.26,1.75-1.83,2.66.87,7.07.18,8.1,3.55.73,2.4-.31,4.35-.13,6.18.28,2.84,3.3,13.31-.65,14.51-.34.11-6.68-.15-7.2-.28-5.17-1.34-2.75-6.92-2.66-10.92.03-1.63-.75-3.24-.69-4.61.03-.71,1.2-5.79,1.48-6.6Z"/>
      <path class="cls-2" d="M147,36.16c-1.11-.59-1.49-2.43-1.67-3.63-.37-2.53-.05-13.68.36-16.32.69-4.45,8.53-2.43,9.54.09.88,2.19.49,16.91-1.02,18.45-1.37,1.4-5.65,2.23-7.22,1.4Z"/>
      <path class="cls-2" d="M113.39,36.2c-.78-.23-2.52-1.36-2.87-2.11-.92-1.99-.25-19.26.99-20.32l7.38.36c1.68,1.85.99,16.57-.07,19.28-1.03,2.66-2.52,3.62-5.43,2.79Z"/>
      <path class="cls-2" d="M35.46,22.07c.76.26,2.14,2.36,2.65,3.23,2.59,4.44-3.59,15.67-7.65,9.28-1.45-2.28,1.65-13.64,5.01-12.5Z"/>
      <path class="cls-2" d="M93.56,6.88c.57,8.21-.02,16.61,1.22,24.81-1.07,4.61-4.63,4-8.29,4.8l-26.82-.26c-1.43-1.34-1.47-34.03-.06-35.09l31.29-1.15c3.26,1.06,2.49,4.38,2.66,6.88ZM72.49,10.01c-1.35.02-2.78-2.63-4.52.77l-1.25,15.73,17.83,1.06-.62-18.46c-.67-.83-9.7.88-11.43.9Z"/>
      <path class="cls-1" d="M.37,27.09c.31-1.15,1.74-3.73,2.84-4.15.27-.1,5.53.18,5.79.3,5.16,2.25,4.44,9.82.57,12.45-.46.31-6.07.71-6.57.56C-.26,35.23-.36,29.73.37,27.09Z"/>
    </g>
  </g>
</svg>